Coordinates
version=1
nRows=26
nColumns=24
inDegrees=yes

Units are S.I. units (second, meters, Newtons, ...)
Angles are in degrees.

endheader
time	pelvis_tilt	pelvis_list	pelvis_rotation	pelvis_tx	pelvis_ty	pelvis_tz	hip_flexion_r	hip_adduction_r	hip_rotation_r	knee_angle_r	ankle_angle_r	subtalar_angle_r	mtp_angle_r	hip_flexion_l	hip_adduction_l	hip_rotation_l	knee_angle_l	ankle_angle_l	subtalar_angle_l	mtp_angle_l	lumbar_extension	lumbar_bending	lumbar_rotation
      0.78150000	     -0.97127835	     -1.23265379	      2.40408928	     -0.47397915	      0.99680492	      0.31848809	     10.40305257	      5.20129069	     -4.58349519	    -15.55413358	      8.84177310	     -5.51430277	      0.27133439	     19.98689623	     -0.62575870	      1.06884670	    -69.53191815	     -8.56210475	     -9.33141744	      3.92606320	      1.85933155	      4.65374476	      2.78309713
      0.78566667	     -0.94454530	     -1.15990373	      2.33849265	     -0.46894163	      0.99742747	      0.31879475	      9.89619886	      5.15257021	     -4.61083047	    -15.26088101	      8.96823045	     -5.28459588	      0.29282100	     20.51634716	     -0.51507744	      1.04827885	    -69.32025006	     -7.89177888	     -9.52246307	      3.84969343	      1.79649852	      4.58154858	      2.94941704
      0.78983333	     -0.93025837	     -1.07476302	      2.26053581	     -0.46390885	      0.99800675	      0.31911546	      9.40745441	      5.09215141	     -4.61504261	    -14.97686654	      9.09462917	     -5.07944864	      0.31373541	     21.04001422	     -0.39553758	      1.01013215	    -69.04778514	     -7.21573916	     -9.70433061	      3.77912123	      1.74856166	      4.49497875	      3.11786387
      0.79400000	     -0.89726466	     -0.98614796	      2.17655896	     -0.45887905	      0.99858422	      0.31944623	      8.89760407	      5.03057111	     -4.60408324	    -14.68952467	      9.21499233	     -4.88823862	      0.33290174	     21.52549000	     -0.27886873	      0.96028946	    -68.71860710	     -6.53491369	     -9.88881887	      3.71511185	      1.67679995	      4.40421108	      3.28182126
      0.79816667	     -0.91431323	     -0.91027160	      2.08439491	     -0.45390017	      0.99901388	      0.31977870	      8.45722856	      4.98350412	     -4.55990893	    -14.42553484	      9.32488856	     -4.76491198	      0.34258967	     22.06361148	     -0.17385070	      0.90992454	    -68.36063395	     -5.85355947	    -10.10931810	      3.69357221	      1.65630244	      4.33084599	      3.37441001
      0.80233333	     -0.87258235	     -0.81759789	      1.98594144	     -0.44887515	      0.99953750	      0.32013446	      7.94027593	      4.91969819	     -4.52908965	    -14.13813737	      9.45094037	     -4.54358340	      0.36071045	     22.50440147	     -0.06816534	      0.83648929	    -67.92278188	     -5.16577937	    -10.21705322	      3.62856877	      1.57588972	      4.23118992	      3.62781708
      0.80650000	     -0.88683883	     -0.74621442	      1.87667205	     -0.44389022	      0.99991147	      0.32050018	      7.50198270	      4.87851554	     -4.47745610	    -13.88113312	      9.55904640	     -4.41196170	      0.37240864	     23.00408075	      0.01012319	      0.75219470	    -67.45799068	     -4.49638606	    -10.39928991	      3.58609411	      1.56058526	      4.14785070	      3.76457534
      0.81066667	     -0.91002962	     -0.66321303	      1.77121090	     -0.43894899	      1.00024075	      0.32083930	      7.07505493	      4.82547616	     -4.39124383	    -13.62167291	      9.66717087	     -4.29046688	      0.38042683	     23.50008551	      0.11337465	      0.68623197	    -66.94174641	     -3.85043500	    -10.57176428	      3.55991099	      1.53728011	      4.06563526	      3.88377861
      0.81483333	     -0.92971732	     -0.58445377	      1.65112596	     -0.43398226	      1.00052596	      0.32120168	      6.64722114	      4.77616937	     -4.30758726	    -13.36974344	      9.77702918	     -4.15946678	      0.38848727	     23.97155557	      0.19304519	      0.59017103	    -66.37550148	     -3.21352797	    -10.70302043	      3.52552028	      1.51620966	      3.98204901	      4.04956110
      0.81900000	     -0.91710572	     -0.50540167	      1.53103618	     -0.42899057	      1.00083373	      0.32156561	      6.17505868	      4.72663012	     -4.23162685	    -13.09940643	      9.89346771	     -3.99840752	      0.39924259	     24.38475338	      0.26560879	      0.49061982	    -65.75119496	     -2.61402037	    -10.77823592	      3.43658453	      1.47560493	      3.89617289	      4.33924528
      0.82316667	     -0.95626763	     -0.42626675	      1.39730231	     -0.42404648	      1.00100885	      0.32192081	      5.78274459	      4.67392880	     -4.13344440	    -12.87315010	      9.99079735	     -3.89213715	      0.40574512	     24.84460794	      0.33932951	      0.37971436	    -65.08937440	     -2.04364145	    -10.92701558	      3.37657070	      1.48569762	      3.81682399	      4.46299843
      0.82733333	     -0.99681321	     -0.35815871	      1.26971808	     -0.41910912	      1.00114181	      0.32226909	      5.38682240	      4.63407330	     -4.02374829	    -12.63221272	     10.08886517	     -3.78903243	      0.41092037	     25.29239146	      0.40178046	      0.28191744	    -64.38601251	     -1.50787270	    -11.04282584	      3.31307894	      1.49102132	      3.74495801	      4.61068481
      0.83150000	     -1.04840224	     -0.29702769	      1.16760919	     -0.41418242	      1.00121969	      0.32258259	      4.99441227	      4.60100327	     -3.92226113	    -12.37114321	     10.19059829	     -3.70089003	      0.41455094	     25.74258473	      0.46923270	      0.21554462	    -63.64237221	     -1.03768372	    -11.16713675	      3.28181175	      1.50467166	      3.66809252	      4.69480657
      0.83566667	     -1.06283736	     -0.22566159	      1.00970849	     -0.40924100	      1.00131380	      0.32294522	      4.57784193	      4.55651475	     -3.77986045	    -12.14536706	     10.27271178	     -3.61005154	      0.41668298	     26.11698691	      0.51313325	      0.07757451	    -62.83561440	     -0.56776615	    -11.24938456	      3.21075385	      1.48027171	      3.60795622	      4.87930284
      0.83983333	     -1.10525823	     -0.16108511	      0.88211203	     -0.40430725	      1.00132404	      0.32327180	      4.18382907	      4.51711793	     -3.65753196	    -11.90049916	     10.36109707	     -3.53296328	      0.41773282	     26.51365895	      0.56517941	     -0.02268290	    -61.99316817	     -0.16906781	    -11.34864869	      3.12812971	      1.48834484	      3.53739170	      5.04264190
      0.84400000	     -1.11953132	     -0.09846699	      0.76355498	     -0.39935631	      1.00134541	      0.32358726	      3.74738135	      4.47968632	     -3.54278174	    -11.63036912	     10.45111937	     -3.47035816	      0.41581772	     26.85949666	      0.61260996	     -0.12298207	    -61.10068160	      0.16439886	    -11.44272551	      2.97851874	      1.46480391	      3.45933800	      5.25003324
      0.84816667	     -1.19631949	     -0.05394173	      0.65510899	     -0.39443843	      1.00122125	      0.32385751	      3.39451687	      4.45723364	     -3.42892036	    -11.38903724	     10.53953707	     -3.39326748	      0.41725350	     27.26557128	      0.65717192	     -0.18739523	    -60.18215691	      0.48458206	    -11.53621420	      2.93160139	      1.50922621	      3.41988698	      5.29490610
      0.85233333	     -1.20285039	      0.00983762	      0.51780820	     -0.38948441	      1.00118042	      0.32416916	      2.95912111	      4.41549491	     -3.29256626	    -11.13747700	     10.61199513	     -3.34499240	      0.41346667	     27.55814597	      0.69481783	     -0.30986550	    -59.19259285	      0.73076101	    -11.64706637	      2.79029671	      1.48094979	      3.34443707	      5.46306399
      0.85650000	     -1.27617647	      0.04039716	      0.42112183	     -0.38456603	      1.00096746	      0.32440161	      2.59752944	      4.40453024	     -3.18060887	    -10.88477524	     10.70535109	     -3.27318677	      0.41404596	     27.92774227	      0.72606197	     -0.36352592	    -58.19715025	      0.97732845	    -11.72062918	      2.73197448	      1.51195963	      3.32024725	      5.51339452
      0.86066667	     -1.25661126	      0.10153836	      0.29260020	     -0.37959240	      1.00091453	      0.32468803	      2.12758369	      4.36256262	     -3.04430500	    -10.62239328	     10.77060999	     -3.24668900	      0.40803086	     28.14434926	      0.76647139	     -0.46880871	    -57.10457756	      1.13115959	    -11.84610004	      2.57973777	      1.45899882	      3.25151799	      5.66156982
      0.86483333	     -1.31032850	      0.13324690	      0.18521174	     -0.37466096	      1.00066570	      0.32491397	      1.74325317	      4.34790309	     -2.91585133	    -10.36631205	     10.85643616	     -3.20128569	      0.40420116	     28.44480416	      0.78897460	     -0.54154907	    -56.00918444	      1.28919757	    -11.93127940	      2.45581127	      1.47945499	      3.22584809	      5.74125922
      0.86900000	     -1.32962179	      0.17295867	      0.09023533	     -0.36969862	      1.00044829	      0.32513001	      1.31054385	      4.32338277	     -2.80963899	    -10.09095806	     10.94905799	     -3.16183046	      0.39962216	     28.68200415	      0.82142525	     -0.61137279	    -54.86039967	      1.39974614	    -12.02653415	      2.33392317	      1.45566440	      3.18457478	      5.81795957
      0.87316667	     -1.35318279	      0.19254164	      0.00413006	     -0.36473007	      1.00018591	      0.32532570	      0.88108970	      4.31917592	     -2.71492999	     -9.81323254	     11.04008210	     -3.12639597	      0.39397476	     28.90525196	      0.83654971	     -0.66947977	    -53.67325925	      1.48263491	    -12.11937791	      2.20601230	      1.45548112	      3.16108752	      5.88833357
      0.87733333	     -1.36854435	      0.21336542	     -0.07553863	     -0.35974448	      0.99990011	      0.32550808	      0.43766027	      4.31135846	     -2.62967226	     -9.52767936	     11.14046329	     -3.09792240	      0.38765728	     29.09874047	      0.85275188	     -0.72867427	    -52.44533595	      1.53875719	    -12.20905247	      2.07656784	      1.43411876	      3.13933506	      5.94959650
      0.88150000	     -1.38917171	      0.23930851	     -0.15420445	     -0.35476961	      0.99957233	      0.32567251	      0.00372246	      4.29488039	     -2.55006170	     -9.24751009	     11.24451623	     -3.06138149	      0.38113195	     29.27528164	      0.87527321	     -0.79015321	    -51.17138160	      1.56991860	    -12.29363813	      1.95548023	      1.40943966	      3.12266557	      5.99948740
      0.88566667	     -1.40764826	      0.24562890	     -0.21786295	     -0.34976552	      0.99920326	      0.32582231	     -0.44085746	      4.29936586	     -2.49252963	     -8.95557911	     11.35932727	     -3.03338510	      0.37260841	     29.43363997	      0.87937680	     -0.84483483	    -49.86715290	      1.58040001	    -12.38606186	      1.81834287	      1.40013400	      3.11257427	      6.04701186
